<?xml version="1.0" encoding="utf-8"?>
<!-- Generator: Adobe Illustrator 22.1.0, SVG Export Plug-In . SVG Version: 6.00 Build 0)  -->
<svg version="1.1" xmlns="http://www.w3.org/2000/svg" xmlns:xlink="http://www.w3.org/1999/xlink" x="0px" y="0px"
	 viewBox="0 0 960 560" style="enable-background:new 0 0 960 560;" xml:space="preserve">
<style type="text/css">
	.st0{stroke:#000000;stroke-miterlimit:10;}
	.st1{font-family:'GENISO';}
	.st2{font-size:268px;}
	.st3{fill:none;stroke:#000000;stroke-width:5;stroke-miterlimit:10;}
	.st4{fill:none;stroke:#000000;stroke-miterlimit:10;}
	.st5{stroke:#000000;stroke-width:0.5;stroke-miterlimit:10;}
</style>
<g id="Layer_3">
	<text transform="matrix(1 0 0 1 65.1101 342.4199)" class="st0 st1 st2">TAMAS</text>
</g>
<g id="Layer_2">
	<rect x="30" y="112" class="st3" width="900" height="300"/>
</g>
<g id="Layer_4">
	<g>
		<g>
			<line class="st4" x1="-88.5" y1="624.5" x2="-88.5" y2="624.5"/>
			<g>
				<g>
					<line class="st4" x1="-88.5" y1="624.5" x2="-88.5" y2="624.4"/>
					<line class="st4" x1="-88.5" y1="624.5" x2="-88.5" y2="624.4"/>
				</g>
				<g>
				</g>
			</g>
		</g>
		<g>
			<g>
				<text transform="matrix(1 0 0 1 -89.1118 624.6875)" class="st1" style="font-size:0.5px;">0.0</text>
				<text transform="matrix(1 0 0 1 -89.1118 623.8877)" class="st1" style="font-size:0.5px;">0.2</text>
				<text transform="matrix(1 0 0 1 -89.1479 623.0879)" class="st1" style="font-size:0.5px;">0.4</text>
				<text transform="matrix(1 0 0 1 -89.1118 622.2871)" class="st1" style="font-size:0.5px;">0.6</text>
				<text transform="matrix(1 0 0 1 -89.1118 621.4873)" class="st1" style="font-size:0.5px;">0.8</text>
				<text transform="matrix(1 0 0 1 -89.0396 620.6875)" class="st1" style="font-size:0.5px;">1.0</text>
			</g>
			<line class="st4" x1="-88.5" y1="624.5" x2="-88.5" y2="620.5"/>
			<g>
				<g>
					<line class="st4" x1="-88.5" y1="624.5" x2="-88.5" y2="624.5"/>
					<line class="st4" x1="-88.5" y1="623.7" x2="-88.5" y2="623.7"/>
					<line class="st4" x1="-88.5" y1="622.9" x2="-88.5" y2="622.9"/>
					<line class="st4" x1="-88.5" y1="622.1" x2="-88.5" y2="622.1"/>
					<line class="st4" x1="-88.5" y1="621.3" x2="-88.5" y2="621.3"/>
					<line class="st4" x1="-88.5" y1="620.5" x2="-88.5" y2="620.5"/>
				</g>
				<g>
				</g>
			</g>
		</g>
		<g>
			<g>
				<g>
					<rect x="-88.5" y="620.5" class="st5" width="0" height="4"/>
				</g>
			</g>
		</g>
		<g>
			<g>
			</g>
		</g>
	</g>
</g>
</svg>
